<?xml version="1.0" encoding="utf-8"?>
<!-- Generator: Adobe Illustrator 25.2.1, SVG Export Plug-In . SVG Version: 6.00 Build 0)  -->
<svg version="1.1" id="Layer_1" xmlns="http://www.w3.org/2000/svg" xmlns:xlink="http://www.w3.org/1999/xlink" x="0px" y="0px"
	 width="780px" height="440px" viewBox="0 0 780 440" style="enable-background:new 0 0 780 440;" xml:space="preserve">
<style type="text/css">
	.st0{fill:#08C4B2;}
	.st1{fill:none;stroke:#000000;stroke-width:1.25;stroke-linecap:round;stroke-linejoin:round;stroke-miterlimit:10;}
	.st2{fill:#FFD943;stroke:#000000;stroke-width:1.25;stroke-linecap:round;stroke-linejoin:round;stroke-miterlimit:10;}
	
		.st3{fill:none;stroke:#000000;stroke-width:1.25;stroke-linecap:round;stroke-linejoin:round;stroke-miterlimit:10;stroke-dasharray:10,15;}
	.st4{fill:#FFE16E;stroke:#000000;stroke-width:1.25;stroke-linecap:round;stroke-linejoin:round;stroke-miterlimit:10;}
	.st5{fill:#FFFFFF;stroke:#000000;stroke-width:1.25;stroke-linecap:round;stroke-linejoin:round;stroke-miterlimit:10;}
	.st6{fill:#56ADF5;}
</style>
<rect x="-3.7" y="-7.8" class="st0" width="789.1" height="455.9"/>
<g>
	
		<ellipse transform="matrix(0.9616 -0.2745 0.2745 0.9616 -94.8584 72.6861)" class="st1" cx="212.3" cy="375.3" rx="5.1" ry="5.1"/>
	<g>
		<line class="st1" x1="227.4" y1="330.6" x2="239.1" y2="330.6"/>
		<line class="st1" x1="233.2" y1="324.7" x2="233.2" y2="336.5"/>
	</g>
	
		<rect x="261.4" y="363" transform="matrix(0.7071 -0.7071 0.7071 0.7071 -182.0497 295.7561)" class="st1" width="9.2" height="9.2"/>
</g>
<g>
	<path class="st2" d="M518.5,94.1c0.2-0.3,0.7-0.7,1.4-0.9l67.5-25.9c0.7-0.4,1.3-0.6,1.9-0.6c0.8,0,1.5,0.2,2,0.7
		c0.4,0.3,0.7,0.7,0.8,1.2c0.1,0.5,0.1,1.1-0.2,2l-15.5,37c-0.5,1.3-1.2,2.3-2.2,2.8c-1,0.6-2.2,0.6-3.7,0l-7.1-3.1l-13.2,12.9
		c-0.3,0.4-0.7,0.6-1.3,0.6c-1.4,0-1.9-1.5-2.2-2.4l-5.8-18.4c-0.1-0.3-0.3-0.6-0.5-0.8c-0.2-0.2-0.5-0.3-0.9-0.3l-19-2
		c-0.6-0.1-1.3-0.3-1.7-0.6c-0.3-0.2-0.5-0.5-0.6-0.9C518.1,95,518.2,94.6,518.5,94.1z"/>
	<polyline class="st1" points="563.4,107.3 550.8,104.4 548.9,120.8 	"/>
	<line class="st1" x1="575.7" y1="77.4" x2="540.4" y2="99.2"/>
	<line class="st1" x1="576.1" y1="77.5" x2="550.8" y2="104.4"/>
</g>
<path class="st3" d="M541,130.6c-8.4,14.6-23.7,24.7-40.5,26c-10.6,0.8-22.7-1.9-31.2-8.3c-9.1-6.9-13.3-20.6-3.8-29.3
	c9.8-9,26.4,1.1,28.2,12.6c2,12.5-6.9,25.1-12.1,35.7c-16.2,32.7-50.8,8.5-50.8,8.5"/>
<polygon class="st4" points="498.6,329.6 389.3,329.6 280.1,329.6 280.1,259.4 280.1,189.3 389.3,108.4 498.6,189.3 498.6,259.4 "/>
<g>
	<g>
		<g>
			<polygon class="st5" points="329.2,132.9 329.2,294.5 459.7,294.5 459.7,160.7 431.9,132.9 			"/>
		</g>
		<polyline class="st1" points="431.8,133.5 431.8,160.8 459.4,160.8 		"/>
	</g>
	<g>
		<g>
			<path d="M366.1,197.5c0-18.8,13.4-31,28.4-31c13.8,0,22.4,9,22.4,22.7c0,12.2-7.1,18.8-13,18.8c-3.8,0-6.6-1.7-6.8-5.5H397
				c-2.6,2.8-5.5,5.1-8.9,5.1c-4.4,0-8.2-3.2-8.2-9.8c0-6.8,4.8-16.2,13.4-16.2c2.6,0,4.7,1.2,6.1,3.5h0.1l0.6-2.9h1.9l-2.5,13.4
				c-1.7,7-0.1,10.3,4.5,10.3s10.6-6,10.6-16.6c0-12.8-8-20.8-20.4-20.8c-13.4,0-26.1,11.4-26.1,28.8c0,14.1,8.7,23.2,22,23.2
				c5,0,8.9-1.5,12.4-3.6l1,1.7c-4.1,2.6-8.6,3.9-13.5,3.9C376.2,222.5,366.1,213.2,366.1,197.5z M396.5,200.4l2.3-13
				c-1.9-2.9-3.3-3.8-5.7-3.8c-6.8,0-11.1,7.6-11.1,14c0,5.8,2.8,7.9,6.1,7.9C390.7,205.5,393.5,203.9,396.5,200.4z"/>
		</g>
	</g>
</g>
<g>
	<polygon class="st2" points="498.9,329.8 389.6,329.8 280.4,329.8 280.4,259.7 280.4,189.6 389.6,256.8 498.9,189.6 498.9,259.7 	
		"/>
	<polygon class="st2" points="389,236.2 498.7,330.1 280.2,330.1 	"/>
</g>
<g>
	<path class="st5" d="M421.7,329.8l-28.9-21.7v36.1c0,0.5,0.6,0.7,0.9,0.3l8.7-11.7l7.1,14.1c0.3,0.6,1.1,0.9,1.7,0.6l2.2-1.1
		c0.6-0.3,0.9-1.1,0.6-1.7l-7-14.1h14.5C421.9,330.7,422.1,330.1,421.7,329.8z"/>
	<g>
		<line class="st1" x1="414.8" y1="302.2" x2="407.2" y2="305.9"/>
		<line class="st1" x1="403.5" y1="287.5" x2="398.6" y2="302.1"/>
		<line class="st1" x1="384.8" y1="292" x2="388" y2="298.5"/>
		<line class="st1" x1="369.1" y1="303.9" x2="384.5" y2="309.1"/>
		<line class="st1" x1="374.7" y1="322" x2="381.2" y2="318.8"/>
	</g>
</g>
<g>
	<circle class="st6" cx="498.5" cy="259.6" r="21.9"/>
	<g>
		<path class="st1" d="M520,254.7c0.7,2.8,0.8,5.7,0.3,8.7c-0.5,3-1.6,5.7-3.1,8.1c-1.5,2.4-3.5,4.5-5.8,6.1
			c-2.3,1.6-4.9,2.8-7.6,3.5c-2.8,0.7-5.7,0.8-8.7,0.3c-3-0.5-5.7-1.6-8.1-3.1c-2.4-1.5-4.5-3.5-6.1-5.8s-2.8-4.9-3.5-7.6
			c-0.7-2.8-0.8-5.7-0.3-8.7c0.5-3,1.6-5.7,3.1-8.1c1.5-2.4,3.5-4.5,5.8-6.1s4.9-2.8,7.6-3.5c2.8-0.7,5.7-0.8,8.7-0.3
			c3,0.5,5.7,1.6,8.1,3.1"/>
		<polyline class="st1" points="488.9,257.1 498.1,266.4 520.7,243.8 		"/>
	</g>
</g>
</svg>
