<svg id="Layer_1" data-name="Layer 1" xmlns="http://www.w3.org/2000/svg" viewBox="0 0 281.06 56.97"><defs><style>.cls-1,.cls-3{fill:#0e80aa;}.cls-2,.cls-3{isolation:isolate;}.cls-3{font-size:36.83px;font-family:AquireBold, Aquire;letter-spacing:-0.01em;}.cls-4{letter-spacing:0em;}</style></defs><path class="cls-1" d="M11.74,41a1.35,1.35,0,0,0-1.09-.36c-.36,0-.73.36-1.09.36L6.29,46.05c-2.17,3.27-2.17,6.9,0,9.44a6,6,0,0,0,4.36,1.81c1.81,0,2.9-.72,4.35-1.81,1.45-1.82,2.91-4.72,0-9.44Z" transform="translate(-4.66 -3.23)"/><path class="cls-1" d="M85,34.8H81.78V32.26a1,1,0,0,0-1.09-1.09h-6.9a1.17,1.17,0,0,0-1.09,1.09V34.8H54.92A3.12,3.12,0,0,1,52,31.9V16.29H54.2a1.15,1.15,0,0,0,1.08-1.08V8A1,1,0,0,0,54.2,6.86H52V3.23H31.33V6.86H29.16A1.16,1.16,0,0,0,28.07,8v7.26a1,1,0,0,0,1.09,1.08h2.17V39.16a17.76,17.76,0,0,0,5.81,13.42V47.14a1,1,0,0,1,1.09-1.09h2.9V42.42a1,1,0,0,1,1.09-1.09h4.72a1.09,1.09,0,1,1,0,2.18H43.67v3.63a1,1,0,0,1-1.09,1.09H39.32V54A14.49,14.49,0,0,0,48,56.58H72.7v2.54a1,1,0,0,0,1.09,1.09h6.9a1.17,1.17,0,0,0,1.09-1.09V56.58H85ZM29.88,14.12V9H52.74v5.08H29.88ZM79.24,58.39H74.52V34.08h4.72V58.39Z" transform="translate(-4.66 -3.23)"/><path class="cls-1" d="M46.94,39.88H39.68a2.48,2.48,0,0,0-2.54,2.54A2.48,2.48,0,0,0,39.68,45h7.26a2.48,2.48,0,0,0,2.54-2.54A2.73,2.73,0,0,0,46.94,39.88Z" transform="translate(-4.66 -3.23)"/><path class="cls-1" d="M36.78,48.23a1.11,1.11,0,0,0-1.45,0,1.59,1.59,0,0,0,0,1.81l2.17,2.54c.37.37.37.37.73.37s.72,0,.72-.37a1.59,1.59,0,0,0,0-1.81Z" transform="translate(-4.66 -3.23)"/><path class="cls-1" d="M45.12,45H37.87a2.48,2.48,0,0,0-2.54,2.54A2.46,2.46,0,0,0,37.87,50h7.25a2.48,2.48,0,0,0,2.54-2.54A2.73,2.73,0,0,0,45.12,45Z" transform="translate(-4.66 -3.23)"/><path class="cls-1" d="M46.21,49H39a2.48,2.48,0,0,0-2.54,2.54A2.49,2.49,0,0,0,39,54h7.26a2.48,2.48,0,0,0,2.54-2.54A2.73,2.73,0,0,0,46.21,49Z" transform="translate(-4.66 -3.23)"/><text class="cls-2" x="-4.66" y="-3.23"/><text class="cls-3" transform="translate(100.73 43)">p<tspan class="cls-4" x="23.2" y="0">umplink</tspan></text></svg>